<?xml version="1.0" standalone="no"?>
<!DOCTYPE svg PUBLIC "-//W3C//DTD SVG 20010904//EN"
 "http://www.w3.org/TR/2001/REC-SVG-20010904/DTD/svg10.dtd">
<svg version="1.0" xmlns="http://www.w3.org/2000/svg"
 width="512.000000pt" height="512.000000pt" viewBox="0 0 512.000000 512.000000"
 preserveAspectRatio="xMidYMid meet">

<g transform="translate(0.000000,512.000000) scale(0.100000,-0.100000)"
fill="#00008B" stroke="none">
<path d="M4330 4129 c-52 -11 -131 -37 -175 -58 -44 -21 -733 -351 -1531 -734
l-1450 -697 -466 150 c-256 83 -473 150 -482 150 -20 0 -206 -92 -206 -102 0
-24 435 -494 595 -642 232 -215 251 -226 399 -226 253 0 748 110 1141 254 155
56 220 83 388 164 75 36 139 63 141 61 2 -2 -38 -404 -90 -894 -51 -490 -93
-912 -94 -938 0 -34 4 -49 16 -54 21 -8 416 183 450 218 20 21 111 267 405
1104 208 592 380 1079 382 1081 2 2 206 101 452 220 656 315 634 303 742 409
116 114 158 193 158 296 0 56 -4 71 -28 102 -50 65 -161 116 -312 143 -116 20
-319 17 -435 -7z"/>
<path d="M1500 4011 c-102 -42 -376 -179 -388 -193 -10 -13 -9 -19 5 -35 10
-11 189 -130 398 -263 209 -134 390 -250 403 -258 21 -14 46 -4 417 174 216
104 390 192 387 196 -14 13 -1098 389 -1137 393 -26 3 -56 -2 -85 -14z"/>
</g>
</svg>
